<svg xmlns="http://www.w3.org/2000/svg" width="180.2" height="52.788" viewBox="0 0 180.2 52.788">
  <path id="Path_35" data-name="Path 35" d="M-69.4-31.8l11.024-7.261L-59.6-40.81-70.57-33.549ZM-66.912.848C-59.6.848-52.6-.795-48.893-3.18l-3.445-5.936c-2.809,1.59-8.268,2.756-13.674,2.756-5.141,0-9.911-1.272-11.342-4.452h28.62a11.174,11.174,0,0,0,.371-2.862c0-8.8-8.215-14.575-20.67-14.575-12.667,0-21.518,5.989-21.518,14.522C-90.55-4.823-81.01.848-66.912.848ZM-77.565-16.165c.477-3.074,3.922-5.247,8.427-5.247,4.4,0,8,2.12,8.162,5.247ZM-44.6,0h12.561V-39.538H-44.6Zm29.044,0H-2.994V-39.538H-15.555ZM22.286.848c13.3,0,21.995-5.724,21.995-14.522S35.589-28.249,22.286-28.249C9.036-28.249.344-22.472.344-13.674S9.036.848,22.286.848Zm0-7.314c-5.724,0-9.434-2.862-9.434-7.208s3.71-7.208,9.434-7.208,9.434,2.862,9.434,7.208S28.01-6.466,22.286-6.466ZM63.838,11.978c15.9,0,25.811-6.307,25.811-16.377v-23H78.837l-1.643,6.89h-.053c-2.014-4.717-7.526-7.738-13.939-7.738-10.123,0-16.642,5.565-16.642,14.2,0,8.533,6.307,13.939,16.165,13.939,6.36,0,12.031-2.12,14.363-5.406h.053v1.325c0,4.823-5.353,7.844-13.833,7.844-5.353,0-10.971-1.378-14.628-3.551L44.546,8.268C48.309,10.547,55.623,11.978,63.838,11.978Zm4.5-19.027c-5.618,0-9.222-2.65-9.222-6.625s3.6-6.625,9.222-6.625,9.222,2.65,9.222,6.625S73.961-7.049,68.343-7.049Z" transform="translate(90.55 40.81)" fill="#fff"/>
</svg>
